<svg xmlns="http://www.w3.org/2000/svg" viewBox="0 0 58 58"><path fill="#efebde" d="M45.5 14l-14-14H.5v58h45z"/><path d="M10.5 23h25a1 1 0 1 0 0-2h-25a1 1 0 1 0 0 2zm0-8h10a1 1 0 1 0 0-2h-10a1 1 0 1 0 0 2zm25 14h-25a1 1 0 1 0 0 2h25a1 1 0 1 0 0-2zm0 8h-25a1 1 0 1 0 0 2h25a1 1 0 1 0 0-2zm0 8h-25a1 1 0 1 0 0 2h25a1 1 0 1 0 0-2zm-4-45v14h14z" fill="#d5d0bb"/><path d="M45.5 39.2c.969-2.183 3.109-4.2 5.684-4.2 3.467 0 5.964 2.821 6.278 6.183 0 0 .17.835-.203 2.337-.508 2.046-1.701 3.864-3.311 5.251L45.5 56l-8.447-7.229c-1.61-1.387-2.803-3.205-3.311-5.251-.373-1.502-.203-2.337-.203-2.337.313-3.362 2.81-6.183 6.277-6.183 2.575 0 4.715 2.017 5.684 4.2z" fill="#f09372"/></svg>