<svg xmlns="http://www.w3.org/2000/svg" viewBox="0 0 60 60"><path fill="#ecf0f1" d="M1 4.5h55v42H1z"/><path d="M57 47.5H0v-44h57v44zm-55-2h53v-40H2v40z" fill="#545e73"/><path fill="#545e73" d="M5 8.5h47v34H5z"/><path d="M53 43.5H4v-36h49v36zm-47-2h45v-32H6v32z" fill="#ecf0f1"/><circle cx="15" cy="17.069" r="4.569" fill="#f3d55a"/><path fill="#11a085" d="M51 32.611L50 31.5l-12-11L27.5 32l5.483 5.483L37 41.5h14z"/><path fill="#26b999" d="M6 41.5h31l-4.017-4.017-10.966-10.966L6 40.5z"/><path d="M48 39.7c.969-2.183 3.109-4.2 5.684-4.2 3.467 0 5.964 2.821 6.278 6.183 0 0 .17.835-.203 2.337-.508 2.046-1.701 3.864-3.311 5.251L48 56.5l-8.447-7.229c-1.61-1.387-2.803-3.205-3.311-5.251-.373-1.502-.203-2.337-.203-2.337.314-3.362 2.811-6.183 6.278-6.183 2.574 0 4.714 2.017 5.683 4.2z" fill="#f09372"/></svg>