<svg xmlns="http://www.w3.org/2000/svg" viewBox="0 0 58 58"><path d="M53.566 43.783l-9.552-4.776A3.644 3.644 0 0 1 42 35.748V32c.268-.305.576-.698.904-1.162a21.964 21.964 0 0 0 2.969-5.984C47.098 24.477 48 23.345 48 22v-4c0-.88-.391-1.667-1-2.217V10s1.187-9-11-9c-12.188 0-11 9-11 9v5.783c-.609.55-1 1.337-1 2.217v4a3 3 0 0 0 1.383 2.517C26.382 28.869 29 32 29 32v3.655c0 1.333-.728 2.56-1.899 3.198L18.18 43.72A8.02 8.02 0 0 0 14 50.761V54h44v-3.043a8.022 8.022 0 0 0-4.434-7.174z" fill="#8697cb"/><path d="M18.18 43.72l5.946-3.243c-.034-.033-.005-.043.065-.036l2.91-1.587A3.643 3.643 0 0 0 29 35.655V32s-1.062-1.275-2.092-3.323l-.001-.003a20.31 20.31 0 0 1-.399-.844l-.054-.121a18.523 18.523 0 0 1-.386-.944l-.023-.065a18.79 18.79 0 0 1-.306-.896l-.077-.251a16.731 16.731 0 0 1-.278-1.038A2.992 2.992 0 0 1 24 22v-4c0-.88.391-1.667 1-2.217v-5.648C23.587 9.039 21.397 8 18 8 8.437 8 8 16 8 16v4.995c-.526.475-1 1.154-1 1.914v3.455c0 .911.479 1.711 1.194 2.174C9.057 32.296 11.955 35 11.955 35v3.157a3.146 3.146 0 0 1-1.64 2.762L3.61 45.122A6.928 6.928 0 0 0 0 51.203V54h14v-3.239a8.02 8.02 0 0 1 4.18-7.041z" fill="#556080"/><path d="M46 40.2c.969-2.183 3.109-4.2 5.684-4.2 3.467 0 5.964 2.821 6.278 6.183 0 0 .17.835-.203 2.337-.508 2.046-1.701 3.864-3.311 5.251L46 57l-8.447-7.229c-1.61-1.387-2.803-3.205-3.311-5.251-.373-1.502-.203-2.337-.203-2.337.313-3.362 2.81-6.183 6.277-6.183 2.575 0 4.715 2.017 5.684 4.2z" fill="#ed7161"/></svg>