<svg class="uncode-row-divider uncode-row-divider-swoosh-opacity" width="1500" height="400" viewBox="0 0 240 24" preserveAspectRatio="none"><path fill="#1b1d1f" fill-opacity=".33" d="M240 24V0c-51.797 0-69.883 13.18-94.707 15.59-24.691 2.4-43.872-1.17-63.765-1.08-19.17.1-31.196 3.65-51.309 6.58C15.552 23.21 4.321 22.471 0 22.01V24h240z"/><path fill="#1b1d1f" fill-opacity=".33" d="M240 24V2.21c-51.797 0-69.883 11.96-94.707 14.16-24.691 2.149-43.872-1.08-63.765-1.021-19.17.069-31.196 3.311-51.309 5.971C15.552 23.23 4.321 22.58 0 22.189V24h240z"/><path fill="#1b1d1f" d="M240 24V3.72c-51.797 0-69.883 11.64-94.707 14.021-24.691 2.359-43.872-3.25-63.765-3.17-19.17.109-31.196 3.6-51.309 6.529C15.552 23.209 4.321 22.47 0 22.029V24h240z"/></svg>